<?xml version="1.0" standalone="no"?>
<!DOCTYPE svg PUBLIC "-//W3C//DTD SVG 20010904//EN"
 "http://www.w3.org/TR/2001/REC-SVG-20010904/DTD/svg10.dtd">
<svg version="1.0" xmlns="http://www.w3.org/2000/svg"
 width="8192.000000pt" height="5700.000000pt" viewBox="0 0 8192.000000 5700.000000"
 preserveAspectRatio="xMidYMid meet">
<metadata>
Created by potrace 1.16, written by Peter Selinger 2001-2019
</metadata>
<g transform="translate(0.000000,5700.000000) scale(0.100000,-0.100000)"
fill="#000000" stroke="none">
<path d="M38648 36782 c-86 -64 -236 -175 -333 -247 -98 -71 -212 -155 -254
-186 -132 -98 -503 -369 -590 -433 -46 -33 -129 -95 -185 -136 -56 -42 -157
-116 -226 -166 -191 -139 -771 -564 -1070 -784 -113 -83 -272 -200 -355 -261
-82 -60 -235 -172 -340 -249 -104 -77 -268 -196 -362 -266 l-173 -125 0 -4040
0 -4039 2953 0 c1862 0 2996 4 3072 10 295 25 548 93 810 221 144 70 274 153
496 320 92 68 247 183 344 254 367 269 509 373 720 529 77 56 430 316 785 576
355 260 704 517 775 570 72 53 159 117 195 143 36 26 140 102 231 170 91 67
247 181 345 253 260 191 447 367 568 532 147 201 305 487 341 615 2 4 4 10 5
15 1 4 2 10 1 15 0 4 4 7 10 7 5 0 8 3 5 8 -2 4 11 59 30 121 120 395 124 919
11 1321 -17 63 -31 121 -31 128 1 6 -3 12 -8 12 -6 0 -8 6 -5 14 3 8 2 16 -3
18 -5 2 -11 14 -14 28 -2 14 -5 25 -6 25 -1 0 -3 9 -5 19 -5 24 -119 256 -153
311 -152 243 -230 344 -379 491 l-142 142 82 78 c76 73 184 187 232 245 40 48
194 286 244 376 59 108 112 221 114 246 1 9 5 17 9 17 4 0 5 7 2 15 -4 8 -1
15 5 15 6 0 10 3 10 8 -1 4 0 9 1 12 1 3 3 14 5 24 2 10 10 40 19 65 20 63 63
236 71 291 4 25 9 52 10 60 2 8 8 73 15 143 28 281 -5 640 -83 909 -19 65 -32
120 -29 123 3 3 0 5 -7 5 -8 0 -11 7 -7 15 3 8 1 15 -4 15 -6 0 -9 3 -9 8 1 4
0 9 -1 12 -1 3 -3 13 -5 22 -11 60 -164 340 -261 480 -30 43 -54 80 -54 83 0
6 0 6 -108 130 -350 401 -793 652 -1333 757 l-114 22 -2855 2 -2855 3 -157
-117z m5857 -970 c309 -71 570 -239 749 -482 192 -261 277 -534 263 -845 -16
-351 -157 -653 -427 -913 -33 -31 -133 -106 -675 -503 -121 -88 -290 -212
-375 -275 -146 -107 -446 -327 -713 -522 -66 -48 -184 -135 -264 -194 -80 -60
-148 -108 -153 -108 -4 0 -10 35 -14 78 -4 42 -9 104 -12 137 -24 256 -152
624 -309 890 -25 42 -45 79 -45 81 0 3 -4 10 -10 17 -5 7 -50 67 -99 133 -298
403 -738 704 -1229 839 -51 14 -143 35 -205 47 l-112 22 -1952 3 c-1074 2
-1953 7 -1953 11 0 4 26 26 58 48 31 23 163 119 292 214 129 95 273 200 319
234 46 33 156 115 246 181 90 66 243 179 340 250 98 72 248 182 334 245 86 64
185 137 221 163 36 25 135 98 220 162 l155 115 2625 -3 2625 -3 100 -22z
m-3780 -2662 c294 -33 537 -147 753 -354 136 -130 270 -350 333 -545 85 -265
71 -617 -34 -871 -100 -242 -226 -401 -462 -582 -113 -87 -267 -156 -445 -201
l-85 -21 -2492 -3 -2493 -3 0 1295 0 1295 2418 0 c1544 0 2449 -4 2507 -10z
m4128 -1121 c289 -148 540 -473 627 -815 88 -344 27 -731 -163 -1021 -73 -112
-162 -218 -235 -280 -38 -32 -168 -130 -288 -218 -120 -87 -268 -196 -329
-240 -60 -45 -238 -175 -395 -290 -157 -115 -328 -240 -381 -279 -53 -39 -168
-124 -255 -188 -88 -64 -239 -175 -337 -247 -98 -72 -182 -131 -187 -131 -6 0
-10 9 -10 19 0 20 -18 198 -24 241 -2 14 -7 45 -10 70 -24 169 -130 475 -227
658 -134 252 -239 395 -435 593 l-135 136 121 89 c67 49 183 134 258 190 76
55 351 257 612 449 261 192 538 395 615 452 327 241 483 356 650 478 98 72
245 180 329 242 83 62 152 113 154 113 1 0 22 -10 45 -21z m-4032 -2544 c295
-51 599 -238 775 -474 147 -199 243 -429 262 -631 10 -107 7 -281 -7 -382 -32
-238 -182 -531 -362 -710 -134 -132 -308 -240 -484 -301 -207 -72 -16 -67
-2747 -67 l-2458 0 0 1290 0 1290 2469 0 c2127 0 2480 -2 2552 -15z"/>
<path d="M37030 21595 l0 -1815 455 0 455 0 0 326 0 326 128 134 c70 73 130
134 134 134 3 0 38 -42 76 -92 89 -118 162 -212 281 -364 53 -67 121 -154 151
-194 30 -39 90 -117 133 -171 l79 -99 550 0 549 0 -20 28 c-11 15 -59 77 -106
137 -47 61 -130 169 -184 240 -55 72 -136 177 -180 235 -44 58 -127 166 -184
240 -57 74 -139 182 -182 238 -44 57 -130 170 -192 250 l-112 147 47 50 c26
27 101 106 167 175 110 114 291 306 702 745 l150 160 -536 3 -536 2 -457 -457
-458 -458 0 948 0 947 -455 0 -455 0 0 -1815z"/>
<path d="M27060 21490 l0 -1711 1068 4 c1159 4 1118 2 1353 62 226 57 385 141
519 275 169 170 233 335 233 600 1 223 -56 397 -180 550 -92 114 -170 175
-319 250 l-94 47 62 41 c243 157 371 400 370 702 0 270 -100 477 -305 634
-174 132 -374 205 -667 242 -92 11 -298 14 -1077 14 l-963 0 0 -1710z m1795
990 c43 -11 97 -31 121 -45 203 -119 187 -440 -27 -534 -115 -51 -140 -54
-556 -58 l-393 -5 0 331 0 331 388 0 c356 0 395 -2 467 -20z m172 -1337 c175
-59 253 -157 253 -318 0 -135 -56 -227 -174 -285 -113 -56 -156 -60 -653 -60
l-453 0 0 346 0 345 483 -3 c458 -3 485 -5 544 -25z"/>
<path d="M41730 21490 l0 -1710 1265 0 1265 0 0 385 0 385 -795 0 -795 0 0
1325 0 1325 -470 0 -470 0 0 -1710z"/>
<path d="M31840 22469 c-499 -33 -911 -275 -1139 -667 -79 -135 -123 -257
-158 -431 -22 -108 -24 -401 -4 -511 100 -557 510 -972 1074 -1090 286 -60
638 -44 886 39 497 167 826 540 917 1041 24 129 24 390 1 520 -131 716 -759
1154 -1577 1099z m301 -760 c183 -53 322 -216 365 -429 23 -114 15 -315 -16
-415 -48 -154 -152 -279 -285 -341 -323 -149 -678 39 -750 398 -19 97 -19 282
0 373 69 326 368 507 686 414z"/>
<path d="M35015 22470 c-268 -19 -515 -98 -728 -234 -295 -189 -503 -504 -572
-866 -25 -127 -26 -389 -2 -516 78 -428 335 -770 722 -962 430 -214 1016 -212
1446 4 352 176 592 474 684 849 100 409 26 844 -200 1165 -64 90 -203 227
-305 299 -276 195 -650 288 -1045 261z m205 -741 c186 -22 347 -144 421 -316
48 -112 64 -340 34 -496 -82 -429 -595 -593 -896 -287 -116 118 -164 258 -163
480 0 199 46 344 141 451 85 94 198 153 323 169 30 4 55 8 55 9 0 0 39 -4 85
-10z"/>
<path d="M45740 22469 c-531 -34 -972 -315 -1185 -754 -54 -111 -98 -236 -109
-310 -3 -22 -10 -60 -14 -85 -4 -25 -7 -133 -7 -240 1 -179 3 -204 28 -304
137 -545 561 -923 1147 -1023 143 -24 431 -22 580 5 316 57 596 202 794 413
94 99 154 183 201 277 105 214 144 367 152 602 7 199 -11 344 -62 495 -35 106
-83 227 -94 235 -3 3 -15 22 -25 42 -41 80 -182 243 -277 319 -310 249 -678
356 -1129 328z m290 -756 c168 -46 296 -174 357 -356 25 -75 27 -96 27 -242 1
-124 -3 -175 -17 -224 -59 -214 -210 -365 -404 -406 -88 -19 -136 -19 -231 1
-194 40 -334 175 -398 384 -22 74 -31 318 -14 403 17 90 65 208 106 261 46 60
152 140 220 165 108 41 239 46 354 14z"/>
<path d="M48742 22469 c-310 -24 -599 -160 -807 -380 -110 -118 -227 -292
-240 -359 -2 -12 -8 -27 -13 -34 -13 -16 -60 -207 -72 -291 -12 -90 -12 -330
0 -420 10 -68 53 -250 68 -290 30 -75 105 -207 160 -282 123 -165 250 -270
437 -362 223 -110 458 -154 702 -131 261 24 443 103 611 263 l42 41 0 -66 c0
-291 -105 -494 -305 -589 -107 -51 -189 -64 -400 -63 -157 0 -207 4 -290 22
-202 45 -377 115 -505 204 l-66 45 -164 -323 c-90 -178 -162 -325 -160 -327
81 -68 275 -164 440 -218 263 -86 513 -123 835 -123 596 1 1001 169 1264 527
41 56 109 177 116 207 2 8 17 52 34 98 39 105 77 293 90 447 7 74 11 554 11
1243 l0 1122 -430 0 -430 0 0 -155 c0 -143 -8 -188 -25 -136 -9 29 -129 138
-204 186 -128 81 -275 129 -431 140 -41 3 -95 7 -120 9 -25 2 -91 0 -148 -5z
m502 -755 c173 -42 315 -177 368 -348 33 -104 31 -254 -4 -353 -46 -130 -144
-241 -266 -302 -71 -36 -160 -54 -267 -55 -170 0 -290 44 -405 151 -109 101
-160 224 -160 388 0 101 17 180 56 256 31 63 37 71 93 126 141 139 364 192
585 137z"/>
<path d="M52325 22473 c-391 -16 -757 -170 -1002 -421 -72 -75 -183 -233 -233
-332 -62 -123 -111 -278 -127 -406 -14 -106 -8 -382 10 -476 150 -764 890
-1222 1742 -1078 367 62 729 284 908 557 182 276 265 592 237 908 -22 250 -97
459 -241 676 -176 262 -499 466 -858 539 -120 24 -306 38 -436 33z m256 -764
c160 -46 304 -205 355 -389 35 -130 28 -348 -16 -476 -68 -196 -235 -339 -427
-366 -286 -39 -530 126 -609 412 -25 91 -26 338 -1 429 87 321 378 483 698
390z"/>
</g>
</svg>
