<?xml version="1.0" standalone="no"?>
<!DOCTYPE svg PUBLIC "-//W3C//DTD SVG 20010904//EN"
 "http://www.w3.org/TR/2001/REC-SVG-20010904/DTD/svg10.dtd">
<svg version="1.0" xmlns="http://www.w3.org/2000/svg"
 width="3300.000000pt" height="3300.000000pt" viewBox="0 0 3300.000000 3300.000000"
 preserveAspectRatio="xMidYMid meet">
<metadata>
Created by potrace 1.16, written by Peter Selinger 2001-2019
</metadata>
<g transform="translate(0.000000,3300.000000) scale(0.100000,-0.100000)"
fill="#000000" stroke="none">
<path d="M20510 20230 l0 -3340 -107 0 c-648 -1 -1295 -173 -1903 -508 -120
-66 -378 -243 -517 -354 -194 -156 -561 -526 -546 -551 3 -6 2 -7 -4 -4 -5 3
-18 -6 -29 -20 -10 -15 -26 -34 -35 -42 -22 -22 -40 -58 -31 -64 4 -2 2 -3 -4
-1 -16 3 -34 -17 -34 -38 0 -10 -4 -18 -9 -18 -11 0 -106 -128 -139 -188 -14
-26 -37 -62 -50 -79 -17 -24 -23 -41 -19 -60 4 -16 4 -22 1 -15 -9 19 -24 14
-24 -8 0 -11 -5 -19 -10 -18 -6 2 -17 -12 -25 -29 -8 -18 -10 -33 -5 -33 4 0
11 6 13 13 3 6 6 2 6 -10 1 -16 7 -23 21 -23 18 0 26 16 21 43 -1 5 8 11 19
14 11 3 20 12 20 19 0 8 4 14 9 14 5 0 14 13 19 30 6 16 27 45 46 65 19 19 32
35 28 35 -4 0 0 6 9 13 8 7 24 27 35 45 10 19 37 53 59 76 87 93 115 125 115
135 0 6 7 11 15 11 8 0 15 7 15 16 0 9 9 18 20 21 11 3 20 12 20 19 0 13 12
18 32 15 4 0 5 6 2 13 -5 13 33 57 97 112 13 11 49 47 80 80 64 68 114 112
155 136 16 10 28 22 27 27 -2 5 10 19 25 30 15 12 32 25 39 31 16 13 33 13 33
-1 0 -19 -28 -39 -54 -39 -14 0 -26 -4 -26 -10 0 -5 13 -10 28 -10 35 0 69 35
74 75 2 21 9 31 23 32 l20 3 -20 -9 c-17 -8 -15 -10 13 -10 28 -1 32 2 32 24
0 20 5 25 24 25 13 0 27 -6 30 -12 5 -10 7 -10 12 0 9 18 38 14 54 -8 18 -25
30 -26 30 0 0 19 9 20 323 23 177 2 335 7 351 12 20 5 31 4 37 -6 7 -11 9 -11
9 3 0 18 45 36 57 24 4 -3 -3 -6 -15 -6 -12 0 -22 -5 -22 -11 0 -7 8 -9 23 -4
12 3 27 7 33 7 5 1 8 14 6 30 -4 28 -4 28 49 27 30 0 48 -3 42 -6 -25 -10 -13
-22 13 -13 14 6 37 11 52 11 17 1 21 3 10 6 -10 2 -18 9 -18 14 0 13 48 11 52
-3 3 -8 13 -8 34 -3 l29 9 -34 4 c-20 2 -30 7 -23 11 7 4 -18 7 -55 8 -38 0
-201 1 -363 2 -162 2 -289 5 -282 8 6 2 12 11 12 19 0 11 -18 14 -80 14 -73 0
-80 2 -80 20 0 14 7 20 21 20 14 0 19 5 16 14 -4 9 2 17 14 21 10 4 19 15 19
25 0 10 3 21 8 23 4 3 5 -15 3 -39 l-3 -44 41 0 c41 0 41 0 42 38 1 20 1 41 0
46 -1 4 20 5 46 1 26 -4 275 -9 553 -10 278 -2 508 -3 513 -4 4 0 7 -12 7 -26
0 -25 -1 -25 -80 -25 -62 0 -80 -3 -80 -14 0 -16 -21 -26 -56 -26 -13 0 -24
-4 -24 -10 0 -13 7 -13 69 2 36 8 47 14 39 21 -8 5 5 7 34 3 26 -3 58 -2 70 2
13 5 37 6 53 2 27 -5 24 -7 -25 -14 -30 -5 -49 -10 -43 -13 7 -3 36 0 63 6 28
6 71 11 94 11 29 0 46 5 49 14 4 11 28 15 94 16 48 1 108 5 133 9 l45 8 -45 2
c-30 1 -41 4 -34 11 12 12 97 2 89 -9 -2 -4 11 -6 28 -4 18 2 124 3 237 3 203
0 386 14 405 31 12 12 65 12 65 0 0 -5 -13 -7 -30 -6 -16 1 -30 -1 -30 -6 0
-4 -10 -9 -22 -12 -13 -2 6 -2 42 0 47 2 58 0 40 -6 -23 -8 -24 -9 -3 -10 12
-1 25 4 28 9 3 6 23 11 43 12 34 1 33 2 -13 8 -46 7 -43 7 25 7 41 -1 100 2
130 5 37 5 44 4 20 -1 l-35 -8 32 -2 c17 0 34 3 37 7 4 6 114 9 149 3 4 0 7
-12 7 -26 0 -24 -2 -25 -76 -25 -41 0 -73 -4 -70 -9 3 -5 19 -7 36 -6 16 1 30
-1 30 -6 0 -5 11 -9 25 -9 14 0 25 4 25 10 0 5 7 7 15 4 8 -4 13 -9 11 -13 -3
-4 3 -7 12 -8 9 0 40 -3 67 -7 l50 -5 -55 14 -55 14 90 -4 c50 -2 82 -2 72 1
-9 3 -15 10 -12 15 9 13 53 11 58 -3 4 -10 7 -10 18 0 18 16 26 994 28 3162 1
1553 8 2190 23 2190 6 0 6 -24 2 -56 -5 -41 -4 -55 5 -50 6 4 12 31 13 59 1
50 2 51 5 10 3 -35 8 -43 24 -43 16 0 19 7 19 50 0 39 4 53 20 62 11 7 20 21
20 30 0 12 8 18 21 18 21 0 21 3 15 64 -7 73 -1 96 25 96 10 0 19 5 19 10 0 6
7 10 16 10 27 0 44 27 44 70 0 33 6 47 35 75 33 34 65 46 65 25 0 -5 9 -10 20
-10 18 0 20 7 20 70 l0 70 40 0 40 0 0 40 0 40 40 0 40 0 0 89 c0 68 4 92 16
102 13 10 17 10 24 -1 7 -12 35 1 80 38 3 2 7 79 10 170 l6 167 4 -205 4 -205
7 190 c3 105 7 297 8 429 1 234 1 238 -19 233 -11 -3 -18 -2 -16 2 6 9 -283
117 -474 177 -270 85 -654 176 -915 219 -55 9 -140 22 -189 30 -49 8 -104 15
-123 15 l-33 0 0 -3340z m-153 -3711 l1103 3 0 -156 c0 -97 -4 -156 -10 -156
-6 0 -10 32 -10 75 l0 75 -1200 0 -1200 0 -1 33 c0 17 -3 27 -6 20 -3 -10 -7
-10 -18 0 -7 7 -11 15 -8 20 2 4 -4 7 -14 7 -17 1 -17 1 0 11 10 6 32 7 50 3
18 -4 26 -9 20 -11 -35 -12 -5 -23 61 -23 l74 0 7 48 c7 47 20 66 39 54 6 -3
507 -5 1113 -3z"/>
<path d="M13724 22413 c5 -50 6 -51 16 -28 8 17 9 15 8 -10 -2 -40 4 -49 49
-71 36 -17 176 -28 167 -13 -2 4 5 9 15 12 14 3 17 0 14 -14 -5 -17 -12 -19
-57 -14 -39 3 -44 3 -21 -4 75 -22 225 -71 275 -90 64 -25 72 -26 46 -6 -23
17 -14 20 14 5 11 -6 21 -6 24 -1 8 12 -38 23 -60 14 -11 -4 -15 -3 -11 4 5 7
-1 10 -15 7 l-23 -5 23 12 c17 9 28 9 48 0 14 -6 30 -9 35 -6 5 4 19 -1 31 -9
18 -13 19 -16 5 -16 -9 0 -17 -4 -17 -9 0 -5 -8 -11 -17 -13 -13 -3 -6 -9 21
-21 22 -10 48 -15 58 -11 10 3 25 0 33 -6 12 -10 15 -9 15 5 0 15 -6 17 -40
12 -27 -3 -43 -1 -51 9 -9 11 -9 14 0 14 16 0 31 43 18 52 -6 3 -17 4 -25 0
-9 -3 -13 -1 -9 5 3 5 -34 26 -85 47 -68 28 -94 34 -104 25 -7 -6 -18 -8 -25
-4 -6 4 -14 3 -18 -2 -3 -6 -21 -14 -38 -17 l-32 -7 10 30 c11 32 19 37 35 22
5 -4 23 -12 39 -15 40 -10 21 7 -32 27 -26 10 -44 13 -48 7 -3 -6 -15 -10 -26
-10 -10 0 -19 -4 -19 -10 0 -5 -8 -10 -17 -10 -15 0 -14 2 3 16 19 15 18 15
-3 11 -12 -3 -24 0 -26 6 -2 7 -15 0 -29 -15 l-25 -27 -35 17 c-27 14 -32 20
-22 30 7 7 21 12 30 12 13 0 14 -3 5 -14 -19 -23 12 -27 44 -6 21 14 34 16 59
9 17 -5 38 -9 46 -9 27 1 -9 17 -77 34 -34 9 -70 19 -79 23 -13 5 -15 3 -9 -7
5 -8 3 -11 -6 -8 -8 3 -13 11 -11 17 1 6 -5 11 -13 11 -9 0 -27 12 -40 26
l-24 26 3 -39z"/>
<path d="M19255 22430 c-20 -22 -62 -38 -185 -71 -515 -137 -1043 -479 -1435
-929 -59 -67 -78 -79 -130 -80 -42 0 -105 31 -105 52 0 9 -3 9 -11 1 -17 -17
-2 -85 26 -117 12 -15 37 -31 55 -36 66 -19 96 -1 207 126 58 67 217 224 278
275 22 19 46 40 54 47 8 7 64 51 125 96 296 222 632 381 1038 492 74 20 108
57 108 120 0 24 -2 44 -3 44 -2 0 -12 -9 -22 -20z"/>
<path d="M14816 21861 c-8 -13 31 -44 48 -38 9 4 18 2 21 -3 3 -4 1 -10 -5
-12 -11 -3 143 -128 159 -128 5 0 13 5 16 10 8 13 -14 42 -26 34 -5 -3 -6 2
-3 11 6 14 12 11 40 -16 18 -18 31 -35 29 -39 -3 -4 2 -13 10 -20 15 -13 12
-30 -6 -30 -6 0 -8 4 -5 9 3 5 -1 12 -10 15 -9 3 -14 13 -10 21 4 12 2 13 -14
2 -14 -8 -16 -13 -8 -16 7 -2 23 -15 35 -30 12 -14 22 -20 23 -13 0 6 4 11 9
10 5 -2 9 1 9 6 0 5 5 12 11 15 6 4 -18 32 -54 64 -36 32 -69 55 -75 52 -5 -3
-10 0 -10 8 0 7 -11 23 -25 35 -14 12 -25 17 -25 12 0 -6 -5 -10 -11 -10 -5 0
-7 5 -4 11 8 13 -24 51 -36 43 -5 -3 -7 -9 -4 -14 3 -5 1 -11 -5 -15 -5 -3
-10 -2 -10 3 0 6 -9 8 -20 5 -16 -4 -19 -2 -14 11 7 17 -20 24 -30 7z"/>
<path d="M19240 21355 c-14 -15 -48 -32 -80 -41 -167 -47 -289 -88 -283 -97 3
-6 1 -7 -6 -3 -17 11 -192 -61 -366 -151 -102 -53 -126 -69 -117 -78 4 -5 2
-5 -5 -1 -19 10 -198 -111 -373 -253 -105 -84 -273 -248 -370 -359 -70 -81
-109 -99 -170 -82 -43 12 -43 13 -34 -2 4 -8 3 -10 -2 -5 -5 5 -9 12 -9 15 0
9 -35 58 -36 52 0 -3 -2 -15 -5 -28 -3 -16 0 -21 8 -16 7 5 8 3 2 -7 -23 -37
25 -103 83 -114 53 -10 91 11 158 84 439 479 895 769 1452 921 67 19 133 43
147 54 27 22 47 89 37 119 -6 16 -9 15 -31 -8z"/>
<path d="M19233 20279 c-16 -18 -40 -31 -75 -39 -336 -79 -697 -245 -995 -458
-51 -36 -89 -70 -86 -75 3 -6 1 -7 -4 -4 -13 8 -166 -121 -158 -133 3 -6 0 -7
-8 -4 -9 3 -73 -56 -178 -165 -129 -134 -171 -172 -196 -177 -44 -8 -75 1
-113 32 -17 15 -33 24 -37 21 -3 -3 -2 -26 1 -50 9 -62 49 -98 114 -105 46 -4
52 -2 91 33 23 21 49 50 58 66 9 15 20 26 25 23 4 -3 8 -1 8 4 0 5 53 61 118
125 315 313 679 541 1092 685 63 22 140 47 170 55 30 8 74 20 98 27 43 11 94
52 100 80 16 73 6 98 -25 59z"/>
<path d="M19240 19221 c0 -19 -57 -44 -191 -82 -150 -42 -308 -101 -461 -173
-136 -63 -370 -205 -362 -218 4 -7 3 -8 -4 -4 -19 12 -278 -187 -267 -205 4
-5 0 -6 -8 -3 -14 5 -211 -182 -311 -296 -59 -67 -79 -79 -131 -80 -42 0 -105
31 -105 52 0 8 -5 6 -11 -4 -26 -46 21 -126 88 -146 48 -15 88 2 139 59 74 82
249 256 329 326 300 264 721 489 1112 593 125 34 162 51 182 81 17 28 26 109
12 109 -6 0 -11 -4 -11 -9z"/>
<path d="M18398 15797 l-3 -84 39 4 c34 4 85 33 57 33 -6 0 -11 4 -11 9 0 6
16 7 35 4 42 -7 47 11 8 25 -16 6 -21 11 -12 11 8 1 24 -5 34 -13 16 -11 26
-11 67 4 59 21 83 40 50 40 -12 0 -22 5 -22 10 0 6 18 10 40 10 22 0 40 5 40
10 0 6 5 10 11 10 16 0 0 -20 -25 -31 -19 -9 -19 -9 4 -5 14 3 48 13 75 23
l50 18 -217 3 -217 2 -3 -83z"/>
<path d="M7940 12414 c-227 -26 -348 -57 -486 -125 -318 -155 -543 -439 -638
-804 -113 -434 -74 -930 100 -1273 248 -488 764 -726 1359 -626 231 39 450
157 602 324 61 67 147 204 192 307 43 99 86 231 78 239 -3 3 -112 38 -243 78
-132 40 -249 76 -261 80 -20 6 -24 0 -48 -81 -73 -241 -200 -392 -385 -460
-68 -26 -87 -28 -210 -28 -164 0 -239 20 -351 93 -172 113 -268 293 -310 582
-19 128 -16 474 5 587 39 216 93 330 211 449 128 129 264 184 460 184 180 0
305 -49 421 -164 73 -73 117 -145 149 -244 13 -40 21 -51 34 -48 9 3 86 22
171 42 240 56 341 82 348 88 18 18 -88 263 -159 367 -141 208 -397 364 -679
413 -89 15 -299 27 -360 20z"/>
<path d="M11990 10990 l0 -1380 263 2 262 3 0 1375 0 1375 -262 3 -263 2 0
-1380z"/>
<path d="M16930 10990 l0 -1380 638 0 c920 1 1065 11 1237 89 183 83 327 256
394 474 116 379 -51 737 -411 877 l-68 27 77 50 c207 135 313 342 300 583 -6
112 -32 200 -84 289 -103 175 -272 294 -476 335 -122 25 -422 36 -1039 36
l-568 0 0 -1380z m1359 909 c190 -30 280 -141 269 -328 -7 -109 -45 -175 -138
-237 -77 -51 -125 -56 -547 -61 l-393 -5 0 321 0 321 373 0 c210 0 400 -5 436
-11z m-114 -1089 c83 -5 175 -15 205 -21 157 -32 259 -139 281 -294 24 -172
-44 -309 -187 -377 -84 -39 -187 -47 -631 -48 l-363 0 0 375 0 375 273 0 c149
0 340 -5 422 -10z"/>
<path d="M24400 10990 l0 -1380 265 0 265 0 0 323 1 322 122 129 122 128 209
-373 c115 -206 229 -409 253 -451 l45 -78 279 0 c153 0 279 2 279 4 0 3 -297
520 -634 1103 -48 84 -86 157 -84 162 1 6 144 162 317 346 173 185 323 347
333 361 l19 24 -320 0 -320 0 -168 -193 c-92 -106 -231 -265 -308 -352 l-140
-159 -5 730 -5 729 -262 3 -263 2 0 -1380z"/>
<path d="M10385 11639 c-100 -13 -237 -54 -332 -99 -261 -126 -435 -356 -516
-679 -30 -124 -30 -372 2 -520 67 -314 216 -518 481 -655 325 -168 741 -168
1035 1 277 159 452 415 500 733 67 438 -93 833 -429 1062 -192 132 -470 191
-741 157z m278 -434 c85 -22 130 -49 201 -118 68 -67 122 -165 147 -267 22
-87 18 -368 -5 -450 -46 -159 -144 -282 -273 -343 -65 -31 -73 -32 -193 -32
-122 0 -127 1 -194 34 -133 65 -232 194 -273 357 -24 96 -24 343 0 434 29 106
79 202 139 261 57 57 150 113 214 128 61 14 174 12 237 -4z"/>
<path d="M13815 11639 c-173 -23 -379 -105 -497 -199 -215 -170 -357 -456
-374 -754 -17 -300 65 -590 221 -779 186 -226 521 -359 859 -344 256 12 431
78 616 234 84 70 82 68 150 158 69 91 114 176 150 282 94 282 75 615 -50 863
-137 272 -391 467 -685 526 -91 18 -301 25 -390 13z m323 -447 c219 -85 335
-319 319 -641 -13 -259 -107 -431 -285 -518 -76 -38 -77 -38 -202 -38 -122 0
-127 1 -192 33 -84 41 -162 112 -207 187 -112 185 -121 535 -19 742 57 117
172 214 298 250 66 19 222 11 288 -15z"/>
<path d="M16231 11634 c-116 -31 -217 -114 -301 -247 -19 -31 -38 -56 -42 -57
-5 0 -8 63 -8 140 l0 140 -240 0 -240 0 0 -1000 0 -1000 259 0 259 0 5 518 c5
528 13 659 46 773 41 141 85 205 165 244 102 50 212 43 339 -22 27 -13 51 -23
53 -20 8 8 154 423 154 438 0 23 -125 77 -218 95 -92 17 -161 17 -231 -2z"/>
<path d="M20465 11640 c-286 -41 -516 -169 -671 -373 -59 -78 -135 -235 -170
-352 -22 -76 -27 -115 -32 -249 -5 -178 7 -295 44 -423 96 -334 331 -551 703
-651 86 -23 115 -25 276 -26 194 0 266 12 404 68 293 119 514 375 592 687 27
108 37 351 19 470 -51 352 -275 644 -599 780 -39 17 -111 39 -159 49 -100 23
-317 33 -407 20z m276 -436 c80 -24 126 -50 185 -106 70 -66 111 -131 141
-225 64 -202 41 -500 -52 -659 -13 -22 -43 -60 -67 -83 -99 -100 -196 -141
-331 -141 -106 0 -174 20 -258 76 -159 105 -232 275 -232 534 1 223 44 357
153 473 93 100 197 145 336 146 39 1 95 -6 125 -15z"/>
<path d="M22816 11639 c-481 -62 -816 -414 -868 -912 -28 -263 40 -563 172
-757 182 -268 536 -425 915 -407 266 13 479 105 661 284 194 192 287 413 301
708 15 324 -81 588 -292 801 -225 227 -540 327 -889 283z m325 -448 c217 -87
329 -308 316 -626 -3 -72 -12 -157 -21 -190 -44 -161 -135 -279 -263 -342 -69
-34 -85 -38 -174 -41 -125 -5 -210 18 -297 82 -98 72 -160 169 -198 306 -25
92 -26 348 -1 440 53 198 178 338 346 386 70 20 223 12 292 -15z"/>
<path d="M11714 8766 c-199 -48 -311 -257 -263 -488 25 -121 98 -216 203 -265
56 -26 71 -28 176 -28 128 0 189 17 281 76 l49 31 0 154 0 154 -165 0 -165 0
0 -60 0 -60 90 0 90 0 0 -53 0 -54 -51 -28 c-93 -50 -212 -45 -280 12 -54 45
-72 96 -77 209 -4 87 -1 107 18 152 29 66 74 106 139 122 95 23 182 -7 222
-75 12 -19 27 -35 33 -35 15 0 130 22 134 26 9 7 -43 103 -71 132 -42 44 -89
68 -162 81 -74 14 -136 13 -201 -3z"/>
<path d="M16162 8770 c-126 -27 -219 -112 -262 -240 -18 -55 -21 -82 -18 -171
3 -102 5 -111 43 -185 30 -60 52 -87 90 -116 125 -95 324 -104 488 -22 98 49
97 46 97 216 l0 148 -167 -2 -168 -3 -3 -57 -3 -58 91 0 91 0 -3 -57 -3 -57
-50 -25 c-70 -35 -167 -41 -222 -13 -53 27 -99 82 -115 134 -7 24 -12 81 -13
128 0 108 31 180 96 222 99 65 252 37 289 -51 14 -35 12 -35 97 -20 71 13 74
17 42 84 -26 56 -86 109 -148 130 -56 19 -190 27 -249 15z"/>
<path d="M17145 8766 c-127 -32 -217 -123 -251 -256 -25 -97 -16 -247 18 -322
35 -75 94 -138 165 -174 54 -27 66 -29 173 -29 103 0 121 3 170 26 70 33 136
99 168 167 69 151 43 370 -58 485 -85 97 -241 138 -385 103z m215 -141 c75
-39 116 -145 107 -274 -8 -122 -43 -186 -122 -222 -114 -53 -252 6 -291 124
-20 60 -22 178 -4 241 16 58 73 123 125 142 48 17 141 12 185 -11z"/>
<path d="M18981 8770 c-168 -36 -241 -210 -139 -334 39 -48 99 -77 225 -111
56 -15 116 -36 132 -46 39 -23 49 -61 28 -105 -24 -50 -66 -67 -153 -62 -67 3
-76 6 -108 37 -19 19 -38 47 -41 62 -9 39 -17 42 -91 34 -61 -6 -64 -8 -64
-33 0 -40 43 -122 82 -160 56 -53 135 -75 253 -70 111 5 170 25 219 74 92 93
87 252 -12 334 -34 28 -122 62 -237 91 -106 26 -145 60 -131 114 12 49 140 73
211 40 31 -15 55 -50 55 -80 0 -12 16 -15 74 -15 41 0 77 4 81 9 12 20 -18
101 -51 139 -18 22 -55 49 -84 61 -58 25 -181 35 -249 21z"/>
<path d="M9640 8700 l0 -59 113 -3 112 -3 3 -322 2 -323 75 0 75 0 0 325 0
325 115 0 115 0 0 60 0 60 -305 0 -305 0 0 -60z"/>
<path d="M10731 8738 c-20 -51 -274 -705 -282 -726 -9 -23 -9 -23 72 -20 l81
3 32 85 32 85 159 0 159 0 32 -85 32 -85 82 -3 c76 -3 82 -1 76 15 -4 10 -73
183 -154 385 l-147 368 -83 0 c-76 0 -83 -2 -91 -22z m147 -296 c28 -76 52
-141 52 -145 0 -3 -47 -6 -105 -4 -60 1 -105 6 -105 12 0 15 94 275 100 275 3
0 29 -62 58 -138z"/>
<path d="M12480 8375 l0 -385 270 0 270 0 0 65 0 65 -195 0 -195 0 0 320 0
320 -75 0 -75 0 0 -385z"/>
<path d="M13300 8375 l0 -385 75 0 75 0 0 385 0 385 -75 0 -75 0 0 -385z"/>
<path d="M13770 8375 l0 -385 70 0 70 0 0 257 0 256 142 -229 c77 -126 148
-241 157 -256 15 -27 20 -28 94 -28 l77 0 0 385 0 385 -70 0 -70 0 0 -257 c0
-248 -1 -257 -18 -235 -10 12 -82 128 -162 257 l-144 235 -73 0 -73 0 0 -385z"/>
<path d="M14710 8375 l0 -385 295 0 295 0 0 65 0 65 -214 0 -215 0 -3 100 c-2
55 -2 104 -1 108 2 4 88 6 193 4 l190 -3 0 66 0 65 -188 0 c-104 0 -191 2
-193 4 -2 2 -3 43 -1 90 l3 86 205 0 204 0 0 60 0 60 -285 0 -285 0 0 -385z"/>
<path d="M17920 8375 l0 -385 290 0 290 0 0 65 0 65 -215 0 -215 0 0 105 0
105 193 2 192 3 3 63 3 62 -196 0 -195 0 0 90 0 90 210 0 210 0 0 60 0 60
-285 0 -285 0 0 -385z"/>
<path d="M19999 8400 c-1 -198 -2 -370 -2 -382 -1 -22 3 -23 76 -26 l77 -3 0
171 0 170 155 0 155 0 0 -170 0 -170 75 0 75 0 0 385 0 385 -75 0 -75 0 0
-150 0 -150 -155 0 -155 0 0 150 0 150 -75 0 -75 0 -1 -360z"/>
<path d="M20940 8375 l0 -385 295 0 295 0 0 65 0 65 -220 0 -220 0 0 105 0
105 195 0 195 0 0 65 0 65 -195 0 -196 0 3 88 3 87 208 3 207 2 0 60 0 60
-285 0 -285 0 0 -385z"/>
<path d="M21830 8375 l0 -385 75 0 75 0 2 163 3 162 52 -2 c29 -1 65 -9 81
-17 17 -9 66 -71 127 -160 l99 -146 89 0 89 0 -14 23 c-8 12 -39 63 -68 112
-30 50 -83 118 -117 153 -48 47 -58 62 -44 62 54 0 133 56 160 114 56 115 -6
265 -122 294 -28 7 -132 12 -266 12 l-221 0 0 -385z m444 236 c20 -19 26 -34
26 -67 0 -91 -24 -104 -195 -104 l-125 0 0 101 0 101 134 -4 c126 -3 136 -5
160 -27z"/>
<path d="M22780 8375 l0 -385 290 0 290 0 0 65 0 65 -215 0 -215 0 0 105 0
105 193 2 192 3 3 63 3 62 -196 0 -195 0 0 90 0 90 210 0 210 0 0 60 0 60
-285 0 -285 0 0 -385z"/>
</g>
</svg>
