<?xml version="1.0" standalone="no"?>
<!DOCTYPE svg PUBLIC "-//W3C//DTD SVG 20010904//EN"
 "http://www.w3.org/TR/2001/REC-SVG-20010904/DTD/svg10.dtd">
<svg version="1.0" xmlns="http://www.w3.org/2000/svg"
 width="4201.000000pt" height="4201.000000pt" viewBox="0 0 4201.000000 4201.000000"
 preserveAspectRatio="xMidYMid meet">
<metadata>
Created by potrace 1.16, written by Peter Selinger 2001-2019
</metadata>
<g transform="translate(0.000000,4201.000000) scale(0.100000,-0.100000)"
fill="#000000" stroke="none">
<path d="M20970 29940 c-79 -13 -83 -14 -780 -270 -883 -323 -1923 -704 -2735
-1000 -198 -72 -457 -167 -575 -210 -933 -341 -1880 -687 -2625 -959 -484
-176 -913 -337 -953 -358 -262 -134 -432 -470 -449 -888 -15 -377 100 -710
321 -931 81 -80 134 -119 232 -168 54 -26 845 -310 1292 -463 89 -31 90 -37
27 -163 -166 -330 -282 -810 -346 -1437 l-13 -121 -58 -47 c-63 -51 -136 -143
-174 -217 -56 -111 -69 -249 -34 -376 11 -39 20 -76 20 -81 0 -5 -39 -60 -86
-122 -322 -424 -674 -766 -946 -919 -62 -34 -66 -41 -44 -60 8 -6 48 -56 88
-111 45 -60 80 -99 91 -99 47 0 252 122 362 215 37 32 64 52 60 44 -57 -98
-152 -226 -221 -298 l-85 -89 43 -35 c269 -216 632 -327 1069 -327 l106 0 61
109 c277 487 414 951 400 1355 l-4 123 33 23 c18 13 49 44 68 70 169 230 145
536 -57 733 l-70 67 17 133 c55 438 136 807 232 1067 158 424 450 741 878 950
66 32 251 107 410 165 160 59 558 206 885 327 327 121 757 280 955 353 2157
796 2756 1020 2790 1040 57 33 110 92 137 150 29 65 31 191 4 247 -49 100
-151 174 -258 187 l-63 7 58 8 c294 41 595 -287 533 -583 -8 -38 -22 -84 -31
-102 -24 -46 -99 -123 -153 -158 -26 -16 -204 -88 -397 -159 -332 -123 -1338
-495 -2115 -782 -730 -270 -1588 -587 -1995 -737 -231 -85 -478 -183 -550
-218 -211 -103 -388 -230 -558 -403 l-89 -89 131 -48 130 -48 4 -1431 c3
-1626 -5 -1482 92 -1681 157 -325 484 -598 1036 -864 865 -417 2154 -703 3574
-793 260 -16 978 -16 1210 0 1227 87 2318 348 3115 746 609 304 965 642 1087
1033 l28 88 3 1274 c2 1069 0 1273 -11 1268 -13 -5 -456 -139 -1277 -387 -234
-71 -643 -194 -910 -275 -1736 -525 -2203 -665 -2207 -662 -2 2 25 14 59 27
66 23 1992 727 2533 925 171 62 472 173 670 245 198 72 457 167 575 210 1277
467 2423 886 3090 1129 403 147 406 149 435 183 59 70 5 178 -90 178 -14 0
-427 -145 -918 -321 -491 -177 -998 -360 -1127 -406 -129 -47 -377 -136 -550
-198 -173 -62 -760 -274 -1305 -470 -1248 -450 -2170 -782 -2485 -895 -135
-49 -384 -139 -555 -202 l-310 -113 -130 1 c-115 0 -139 3 -209 27 -174 61
-282 173 -338 352 -32 98 -31 268 0 378 47 167 153 328 285 434 149 120 283
175 1112 458 198 68 497 173 665 235 379 139 633 232 1350 495 311 114 630
231 710 260 80 30 595 219 1145 420 550 201 1097 402 1215 445 118 44 528 194
910 334 601 220 699 259 723 286 51 57 24 127 -74 190 -72 47 -46 36 -769 300
-333 122 -720 263 -860 315 -140 51 -460 168 -710 260 -428 157 -579 212
-1065 390 -110 41 -429 158 -710 260 -280 103 -620 227 -755 277 -135 49 -384
141 -555 203 -374 137 -822 301 -1160 425 -833 305 -827 304 -1015 335 -111
19 -421 28 -500 15z"/>
<path d="M28630 26474 c-36 -14 -157 -58 -270 -99 -211 -76 -1354 -489 -1880
-680 -162 -59 -473 -171 -690 -250 -392 -142 -1595 -577 -2575 -932 -280 -101
-719 -260 -975 -353 -256 -92 -491 -178 -522 -190 l-58 -21 0 -84 0 -84 108
38 c59 22 413 150 787 286 374 136 984 357 1355 492 371 134 1107 401 1635
593 528 192 1365 496 1860 675 495 180 997 362 1115 405 118 43 225 87 237 98
33 30 31 84 -3 111 -33 26 -44 26 -124 -5z"/>
<path d="M28090 25919 c-333 -120 -722 -262 -865 -313 -143 -52 -834 -302
-1535 -556 -701 -254 -1540 -557 -1865 -675 -1242 -450 -1400 -507 -1740 -630
-192 -69 -366 -132 -385 -139 l-35 -14 -3 -86 -3 -85 38 13 c21 8 394 143 828
301 1401 509 2844 1032 3885 1410 661 240 1807 656 2083 756 292 106 287 103
287 169 0 31 -39 70 -69 70 -9 -1 -288 -100 -621 -221z"/>
<path d="M28678 25775 c-2 -3 -103 -40 -224 -84 -212 -76 -1164 -421 -2094
-758 -250 -91 -516 -186 -590 -213 -74 -27 -335 -121 -580 -210 -245 -89 -506
-183 -580 -210 -74 -27 -529 -191 -1010 -365 -481 -174 -1077 -390 -1325 -480
-247 -90 -486 -176 -530 -192 l-80 -29 -3 -82 c-2 -54 1 -82 8 -82 6 0 140 47
298 104 158 57 568 206 912 331 344 125 877 318 1185 430 971 352 1789 649
2425 880 338 123 968 351 1400 508 912 331 868 314 880 338 19 34 12 76 -16
98 -25 19 -64 28 -76 16z"/>
<path d="M18866 17329 c-230 -26 -419 -93 -593 -208 -256 -170 -394 -325 -528
-591 -103 -205 -137 -348 -143 -603 -8 -337 36 -499 217 -805 78 -132 130
-200 223 -287 180 -172 496 -330 759 -380 364 -69 789 -18 1083 131 158 79
322 209 394 310 l22 32 -203 190 -202 190 -55 -52 c-220 -209 -479 -303 -758
-275 -155 16 -331 76 -438 150 -172 118 -320 358 -364 589 -15 79 -13 263 4
350 59 306 228 527 485 635 157 66 229 80 411 79 150 0 173 -2 253 -27 152
-47 275 -120 391 -232 l68 -67 37 34 c20 19 111 105 203 192 l168 158 -32 41
c-98 123 -250 236 -441 327 -215 103 -361 131 -682 129 -115 -1 -241 -5 -279
-10z"/>
<path d="M28565 17329 c-280 -38 -586 -179 -822 -378 -133 -113 -275 -321
-357 -523 -147 -366 -134 -811 34 -1148 164 -328 363 -534 655 -675 294 -143
590 -200 904 -175 238 19 404 64 606 164 360 178 616 459 728 801 54 161 68
249 74 445 4 158 2 203 -15 306 -79 461 -279 743 -702 986 -189 110 -269 142
-442 180 -76 16 -138 21 -343 23 -137 2 -281 -1 -320 -6z m530 -573 c232 -70
400 -199 508 -391 94 -168 117 -260 117 -474 0 -224 -20 -301 -123 -476 -98
-166 -203 -271 -337 -337 -279 -137 -575 -134 -852 9 -95 49 -214 155 -275
244 -208 303 -234 659 -74 994 55 116 115 192 203 262 82 65 156 106 259 144
138 50 190 59 344 55 116 -3 155 -8 230 -30z"/>
<path d="M8530 15885 l0 -1415 1100 0 1100 0 0 265 0 265 -765 0 -765 0 0 320
0 320 655 0 655 0 0 265 0 265 -655 0 -655 0 0 300 0 300 740 0 740 0 0 265 0
265 -1075 0 -1075 0 0 -1415z"/>
<path d="M11260 15885 l0 -1416 768 4 c830 4 849 5 1057 62 340 93 608 283
800 570 83 125 152 299 192 485 26 122 26 469 0 590 -46 215 -132 410 -244
555 -202 261 -461 428 -788 509 -187 46 -233 49 -1027 53 l-758 5 0 -1417z
m1405 874 c252 -31 446 -126 574 -281 65 -79 135 -218 162 -323 27 -103 36
-320 20 -436 -14 -98 -61 -244 -98 -309 -114 -198 -291 -312 -568 -366 -61
-12 -172 -17 -467 -21 l-388 -5 0 876 0 876 338 0 c185 0 378 -5 427 -11z"/>
<path d="M14583 16388 c4 -880 4 -917 25 -1023 52 -272 139 -443 308 -605 150
-144 313 -235 510 -285 144 -37 246 -48 434 -47 264 0 445 37 645 131 286 134
460 334 559 641 72 222 70 194 74 1198 l3 902 -323 -2 -323 -3 -5 -880 c-6
-957 -3 -907 -64 -1068 -22 -59 -72 -145 -108 -187 -55 -64 -181 -136 -293
-165 -84 -22 -261 -22 -350 0 -183 46 -320 168 -383 341 -58 161 -56 114 -62
1074 l-5 885 -323 3 -323 2 4 -912z"/>
<path d="M21576 17268 c-7 -18 -36 -82 -64 -143 -45 -100 -1113 -2478 -1168
-2602 l-24 -53 338 0 337 1 118 299 119 300 657 0 657 0 131 -297 130 -298
347 -3 c190 -1 346 1 346 5 0 6 -178 404 -800 1788 -136 303 -296 659 -355
793 l-109 242 -323 0 -323 0 -14 -32z m552 -1146 c122 -297 222 -542 222 -545
0 -4 -202 -7 -450 -7 -247 0 -450 2 -450 4 0 2 72 179 161 392 88 214 188 458
222 541 34 84 64 153 67 153 3 0 106 -242 228 -538z"/>
<path d="M23340 17035 l0 -265 440 0 440 0 0 -1150 0 -1150 335 0 335 0 0
1150 0 1150 455 0 455 0 0 265 0 265 -1230 0 -1230 0 0 -265z"/>
<path d="M26140 15885 l0 -1415 335 0 335 0 -2 1413 -3 1412 -332 3 -333 2 0
-1415z"/>
<path d="M30900 15885 l0 -1415 320 0 320 0 2 859 3 860 165 -202 c91 -111
408 -498 705 -859 l538 -658 264 0 263 0 0 1415 0 1415 -322 -2 -323 -3 -5
-843 -5 -843 -700 843 -700 843 -263 3 -262 2 0 -1415z"/>
<path d="M14850 13290 c-56 -10 -162 -58 -217 -99 -30 -22 -52 -51 -80 -107
-36 -73 -38 -84 -38 -168 0 -74 4 -99 22 -131 58 -109 198 -179 467 -235 55
-11 107 -26 115 -34 9 -7 31 -21 48 -30 45 -22 66 -65 52 -104 -22 -64 -156
-119 -263 -109 -79 8 -268 69 -329 107 l-48 30 -40 -86 c-56 -123 -56 -126
-18 -158 83 -70 187 -101 374 -111 299 -16 447 38 560 204 28 41 30 52 33 150
6 169 -17 221 -125 278 -84 45 -242 97 -369 123 -146 30 -194 62 -194 131 0
143 271 186 505 80 35 -16 66 -27 68 -23 3 4 19 51 37 106 27 80 30 100 19
107 -8 5 -63 25 -124 46 -106 36 -116 37 -260 39 -82 2 -170 -1 -195 -6z"/>
<path d="M17145 13285 c-126 -24 -233 -81 -330 -179 -90 -91 -136 -169 -160
-267 -19 -83 -19 -238 0 -314 38 -144 198 -343 325 -402 196 -92 489 -88 673
9 117 62 254 230 300 368 41 120 31 303 -24 430 -67 155 -240 300 -414 345
-86 23 -272 28 -370 10z m305 -244 c140 -65 225 -186 237 -336 12 -137 -64
-291 -176 -360 -110 -66 -268 -72 -379 -13 -67 36 -94 59 -132 114 -97 140
-91 342 14 480 39 51 125 111 180 125 44 11 226 4 256 -10z"/>
<path d="M18605 13285 c-109 -20 -246 -88 -325 -162 -132 -121 -211 -385 -169
-561 6 -26 33 -94 60 -151 42 -88 60 -115 126 -181 133 -132 261 -175 513
-173 80 0 165 6 189 13 24 6 95 36 157 67 l114 55 0 254 0 254 -130 0 -130 0
-2 -177 -3 -178 -70 -24 c-104 -36 -238 -34 -322 3 -88 40 -123 81 -199 235
-87 175 56 447 257 490 138 30 304 -6 398 -85 32 -26 32 -27 54 -7 12 11 55
48 96 84 l73 64 -33 28 c-71 60 -155 111 -223 135 -60 21 -92 26 -211 28 -93
2 -167 -2 -220 -11z"/>
<path d="M15680 12680 l0 -600 455 0 455 0 0 105 0 105 -310 0 -310 0 0 495 0
495 -145 0 -145 0 0 -600z"/>
<path d="M19913 13268 c-9 -12 -523 -1130 -539 -1170 -6 -17 5 -18 137 -18
l144 0 59 130 59 130 275 -2 276 -3 57 -125 57 -125 146 -3 145 -3 -28 63
c-25 56 -488 1060 -514 1116 -10 21 -15 22 -137 22 -90 0 -130 -4 -137 -12z
m217 -499 c50 -123 90 -227 90 -231 0 -4 -83 -8 -185 -8 -102 0 -185 3 -185 8
0 14 182 463 187 459 2 -2 44 -105 93 -228z"/>
<path d="M20850 12680 l0 -600 145 0 145 0 2 352 3 351 293 -351 292 -352 120
0 120 0 0 600 0 600 -140 0 -140 0 0 -355 c0 -195 -3 -355 -7 -355 -5 0 -141
160 -303 355 l-295 355 -117 0 -118 0 0 -600z"/>
<path d="M22740 12680 l0 -600 145 0 145 0 0 240 0 240 273 -2 272 -3 3 -237
2 -238 140 0 140 0 0 600 0 600 -140 0 -140 0 0 -240 0 -240 -275 0 -275 0 -2
238 -3 237 -142 3 -143 3 0 -601z"/>
<path d="M24150 12680 l0 -600 465 0 465 0 0 105 0 105 -320 0 -320 0 0 145 0
145 275 0 276 0 -3 108 -3 107 -272 3 -273 2 0 130 0 130 310 0 310 0 0 110 0
110 -455 0 -455 0 0 -600z"/>
<path d="M25320 12680 l0 -600 135 0 135 0 0 165 0 165 130 0 129 0 118 -165
118 -165 156 0 157 0 -139 186 c-76 102 -139 188 -139 189 0 2 24 16 53 33 67
38 132 108 165 180 25 52 27 68 27 177 0 116 -1 123 -33 188 -50 100 -109 156
-212 197 -108 43 -171 49 -522 49 l-278 1 0 -600z m622 360 c35 -11 73 -30 85
-42 78 -86 80 -218 4 -298 -53 -56 -112 -70 -293 -70 l-148 0 0 215 0 215 144
0 c115 0 157 -4 208 -20z"/>
<path d="M26590 12680 l0 -600 465 0 465 0 0 105 0 105 -320 0 -320 0 0 145 0
145 275 0 276 0 -3 108 -3 107 -272 3 -273 2 0 130 0 130 310 0 310 0 0 110 0
110 -455 0 -455 0 0 -600z"/>
</g>
</svg>
